# xmcd CD database file
#
# Track frame offsets:
#	150
#	17525
#	34347
#
# Disc length: 643 seconds
#
# Revision: 0
# Processed by: cddbd v1.5.1PL0 Copyright (c) Steve Scherf et al.
# Submitted via: CDex 1.51
#
DISCID=1a028103
DTITLE=Dixie Chicks - Ready To Run 
DYEAR=1999
DGENRE=Country
TTITLE0=Ready To Run
TTITLE1=Wide Open Spaces
TTITLE2=You Can't Hurry Love
EXTD=YEAR: 1999
EXTT0=
EXTT1=
EXTT2=
PLAYORDER=
